<svg xmlns="http://www.w3.org/2000/svg" xmlns:xlink="http://www.w3.org/1999/xlink" width="45" zoomAndPan="magnify" viewBox="0 0 33.75 33.749999" height="45" preserveAspectRatio="xMidYMid meet" version="1.0"><defs><clipPath id="860f867933"><path d="M 0 0 L 32.871094 0 L 32.871094 32.757812 L 0 32.757812 Z M 0 0 " clip-rule="nonzero"/></clipPath></defs><g clip-path="url(#860f867933)"><path fill="#ef3a5d" d="M 32.566406 16.6875 C 32.566406 17.382812 31.726562 18.019531 31.636719 18.695312 C 31.546875 19.386719 32.195312 20.21875 32.023438 20.875 C 31.84375 21.546875 30.867188 21.945312 30.601562 22.574219 C 30.335938 23.210938 30.75 24.1875 30.402344 24.777344 C 30.058594 25.375 29.007812 25.5 28.589844 26.046875 C 28.171875 26.589844 28.320312 27.640625 27.828125 28.125 C 27.34375 28.609375 26.292969 28.460938 25.75 28.886719 C 25.207031 29.304688 25.078125 30.355469 24.480469 30.699219 C 23.890625 31.046875 22.914062 30.632812 22.277344 30.898438 C 21.648438 31.15625 21.25 32.140625 20.578125 32.320312 C 19.921875 32.5 19.085938 31.847656 18.402344 31.933594 C 17.722656 32.019531 17.09375 32.863281 16.390625 32.863281 C 15.691406 32.863281 15.054688 32.019531 14.378906 31.933594 C 13.6875 31.839844 12.859375 32.492188 12.199219 32.320312 C 11.53125 32.140625 11.132812 31.164062 10.5 30.898438 C 9.863281 30.632812 8.886719 31.046875 8.296875 30.699219 C 7.699219 30.355469 7.574219 29.304688 7.03125 28.886719 C 6.484375 28.46875 5.4375 28.617188 4.953125 28.125 C 4.46875 27.640625 4.613281 26.589844 4.1875 26.046875 C 3.769531 25.5 2.722656 25.375 2.375 24.777344 C 2.03125 24.1875 2.441406 23.210938 2.175781 22.574219 C 1.917969 21.945312 0.933594 21.546875 0.757812 20.875 C 0.578125 20.21875 1.226562 19.382812 1.140625 18.695312 C 1.054688 18.019531 0.210938 17.390625 0.210938 16.6875 C 0.210938 15.988281 1.054688 15.351562 1.140625 14.675781 C 1.234375 13.984375 0.582031 13.152344 0.757812 12.496094 C 0.933594 11.828125 1.910156 11.429688 2.175781 10.796875 C 2.441406 10.160156 2.03125 9.183594 2.375 8.59375 C 2.722656 7.996094 3.769531 7.871094 4.1875 7.324219 C 4.605469 6.78125 4.460938 5.730469 4.953125 5.246094 C 5.4375 4.761719 6.484375 4.910156 7.03125 4.484375 C 7.574219 4.066406 7.699219 3.015625 8.296875 2.671875 C 8.886719 2.328125 9.863281 2.738281 10.5 2.472656 C 11.132812 2.214844 11.53125 1.230469 12.199219 1.050781 C 12.859375 0.871094 13.695312 1.523438 14.378906 1.4375 C 15.054688 1.351562 15.6875 0.507812 16.390625 0.507812 C 17.085938 0.507812 17.722656 1.351562 18.402344 1.4375 C 19.089844 1.53125 19.921875 0.878906 20.578125 1.050781 C 21.25 1.230469 21.648438 2.207031 22.277344 2.472656 C 22.914062 2.738281 23.890625 2.328125 24.480469 2.671875 C 25.078125 3.015625 25.207031 4.066406 25.75 4.484375 C 26.292969 4.902344 27.34375 4.757812 27.828125 5.246094 C 28.3125 5.730469 28.167969 6.78125 28.589844 7.324219 C 29.007812 7.871094 30.058594 7.996094 30.402344 8.59375 C 30.75 9.183594 30.335938 10.160156 30.601562 10.796875 C 30.863281 11.429688 31.84375 11.828125 32.023438 12.496094 C 32.203125 13.152344 31.550781 13.992188 31.636719 14.675781 C 31.726562 15.351562 32.566406 15.988281 32.566406 16.6875 Z M 32.566406 16.6875 " fill-opacity="1" fill-rule="nonzero"/></g><path fill="#de0f3f" d="M 31.261719 15.957031 C 31.261719 16.644531 30.417969 17.269531 30.332031 17.933594 C 30.246094 18.609375 30.894531 19.433594 30.722656 20.085938 C 30.542969 20.742188 29.566406 21.132812 29.316406 21.75 C 29.054688 22.382812 29.46875 23.34375 29.128906 23.929688 C 28.789062 24.519531 27.75 24.640625 27.335938 25.175781 C 26.925781 25.714844 27.078125 26.75 26.59375 27.234375 C 26.109375 27.71875 25.074219 27.558594 24.535156 27.976562 C 23.996094 28.390625 23.878906 29.433594 23.289062 29.769531 C 22.703125 30.109375 21.742188 29.691406 21.109375 29.957031 C 20.484375 30.214844 20.101562 31.191406 19.445312 31.363281 C 18.792969 31.535156 17.976562 30.886719 17.292969 30.972656 C 16.628906 31.058594 16.003906 31.902344 15.3125 31.902344 C 14.625 31.902344 14 31.058594 13.335938 30.972656 C 12.660156 30.886719 11.835938 31.535156 11.183594 31.363281 C 10.527344 31.183594 10.136719 30.207031 9.519531 29.957031 C 8.886719 29.699219 7.925781 30.109375 7.339844 29.769531 C 6.75 29.433594 6.632812 28.390625 6.09375 27.976562 C 5.554688 27.566406 4.519531 27.71875 4.035156 27.234375 C 3.558594 26.757812 3.710938 25.714844 3.292969 25.175781 C 2.878906 24.640625 1.839844 24.519531 1.5 23.929688 C 1.160156 23.34375 1.578125 22.382812 1.3125 21.75 C 1.054688 21.128906 0.078125 20.742188 -0.09375 20.085938 C -0.265625 19.433594 0.382812 18.617188 0.296875 17.933594 C 0.210938 17.269531 -0.632812 16.644531 -0.632812 15.957031 C -0.632812 15.265625 0.210938 14.640625 0.296875 13.976562 C 0.382812 13.300781 -0.265625 12.476562 -0.09375 11.828125 C 0.0859375 11.167969 1.0625 10.777344 1.3125 10.160156 C 1.574219 9.53125 1.160156 8.566406 1.5 7.984375 C 1.839844 7.390625 2.878906 7.273438 3.292969 6.734375 C 3.703125 6.195312 3.550781 5.160156 4.035156 4.675781 C 4.511719 4.199219 5.554688 4.351562 6.09375 3.933594 C 6.632812 3.523438 6.75 2.480469 7.339844 2.140625 C 7.925781 1.800781 8.886719 2.21875 9.519531 1.953125 C 10.144531 1.695312 10.527344 0.71875 11.183594 0.546875 C 11.835938 0.375 12.652344 1.027344 13.335938 0.9375 C 14 0.851562 14.625 0.0078125 15.3125 0.0078125 C 16.003906 0.0078125 16.628906 0.851562 17.292969 0.9375 C 17.96875 1.027344 18.792969 0.375 19.445312 0.546875 C 20.101562 0.726562 20.492188 1.703125 21.109375 1.953125 C 21.742188 2.214844 22.703125 1.800781 23.289062 2.140625 C 23.878906 2.480469 23.996094 3.523438 24.535156 3.933594 C 25.074219 4.34375 26.109375 4.191406 26.59375 4.675781 C 27.070312 5.15625 26.917969 6.195312 27.335938 6.734375 C 27.75 7.273438 28.789062 7.390625 29.128906 7.984375 C 29.46875 8.566406 29.050781 9.53125 29.316406 10.160156 C 29.574219 10.785156 30.550781 11.167969 30.722656 11.828125 C 30.894531 12.476562 30.246094 13.292969 30.332031 13.976562 C 30.417969 14.648438 31.261719 15.273438 31.261719 15.957031 Z M 31.261719 15.957031 " fill-opacity="1" fill-rule="nonzero"/><path fill="#ef3a5d" d="M 15.660156 30.109375 L 15.625 30.101562 C 15.480469 30.082031 15.3125 29.984375 14.996094 29.769531 C 14.675781 29.550781 14.34375 29.324219 13.941406 29.273438 C 13.878906 29.265625 13.820312 29.257812 13.753906 29.257812 C 13.410156 29.257812 13.089844 29.371094 12.777344 29.484375 C 12.5 29.585938 12.308594 29.644531 12.15625 29.644531 C 12.140625 29.644531 12.132812 29.644531 12.128906 29.644531 L 12.074219 29.644531 L 12.027344 29.625 C 11.902344 29.570312 11.761719 29.425781 11.515625 29.144531 C 11.265625 28.855469 11.007812 28.550781 10.628906 28.390625 C 10.429688 28.304688 10.203125 28.269531 9.917969 28.269531 C 9.757812 28.269531 9.605469 28.285156 9.453125 28.289062 C 9.3125 28.304688 9.1875 28.308594 9.066406 28.308594 C 8.941406 28.308594 8.847656 28.296875 8.777344 28.277344 L 8.730469 28.261719 L 8.6875 28.230469 C 8.582031 28.144531 8.488281 27.976562 8.324219 27.640625 C 8.15625 27.289062 7.980469 26.921875 7.652344 26.675781 C 7.328125 26.425781 6.929688 26.351562 6.542969 26.277344 C 6.1875 26.210938 6 26.164062 5.886719 26.085938 L 5.847656 26.058594 L 5.820312 26.019531 C 5.742188 25.90625 5.695312 25.714844 5.628906 25.363281 C 5.554688 24.976562 5.484375 24.585938 5.230469 24.253906 C 4.976562 23.929688 4.621094 23.753906 4.269531 23.589844 C 3.9375 23.429688 3.761719 23.335938 3.675781 23.230469 L 3.644531 23.191406 L 3.625 23.144531 C 3.578125 23.019531 3.578125 22.820312 3.609375 22.460938 C 3.636719 22.070312 3.671875 21.671875 3.511719 21.285156 C 3.351562 20.90625 3.054688 20.648438 2.753906 20.398438 C 2.476562 20.15625 2.328125 20.019531 2.277344 19.890625 L 2.257812 19.847656 L 2.25 19.792969 C 2.238281 19.660156 2.296875 19.472656 2.410156 19.136719 C 2.542969 18.761719 2.675781 18.386719 2.621094 17.972656 C 2.570312 17.570312 2.34375 17.242188 2.125 16.925781 C 1.910156 16.613281 1.804688 16.441406 1.792969 16.292969 L 1.785156 16.261719 L 1.792969 16.226562 C 1.8125 16.082031 1.910156 15.910156 2.125 15.597656 C 2.34375 15.277344 2.570312 14.945312 2.621094 14.546875 C 2.675781 14.136719 2.542969 13.75 2.410156 13.386719 C 2.289062 13.046875 2.238281 12.863281 2.25 12.722656 L 2.257812 12.675781 L 2.277344 12.636719 C 2.328125 12.511719 2.46875 12.378906 2.753906 12.125 C 3.046875 11.871094 3.351562 11.613281 3.511719 11.234375 C 3.671875 10.855469 3.636719 10.453125 3.609375 10.058594 C 3.585938 9.695312 3.578125 9.503906 3.628906 9.371094 L 3.644531 9.332031 L 3.671875 9.296875 C 3.757812 9.191406 3.921875 9.097656 4.261719 8.933594 C 4.613281 8.765625 4.976562 8.585938 5.222656 8.261719 C 5.476562 7.9375 5.550781 7.539062 5.621094 7.152344 C 5.6875 6.792969 5.734375 6.609375 5.816406 6.496094 L 5.839844 6.457031 L 5.882812 6.429688 C 5.992188 6.347656 6.1875 6.304688 6.539062 6.238281 C 6.921875 6.164062 7.316406 6.089844 7.648438 5.839844 C 7.972656 5.585938 8.144531 5.226562 8.316406 4.875 C 8.476562 4.542969 8.570312 4.378906 8.675781 4.285156 L 8.722656 4.25 L 8.777344 4.230469 C 8.84375 4.210938 8.941406 4.199219 9.0625 4.199219 C 9.179688 4.199219 9.3125 4.207031 9.445312 4.21875 C 9.597656 4.230469 9.75 4.238281 9.910156 4.238281 C 10.195312 4.238281 10.421875 4.199219 10.621094 4.117188 C 11 3.960938 11.257812 3.660156 11.511719 3.363281 C 11.75 3.082031 11.890625 2.945312 12.015625 2.882812 L 12.066406 2.859375 L 12.140625 2.859375 C 12.292969 2.859375 12.488281 2.925781 12.765625 3.015625 C 13.078125 3.128906 13.402344 3.242188 13.742188 3.242188 C 13.808594 3.242188 13.867188 3.234375 13.925781 3.230469 C 14.332031 3.175781 14.65625 2.949219 14.976562 2.730469 C 15.289062 2.519531 15.460938 2.414062 15.605469 2.398438 L 15.640625 2.394531 L 15.671875 2.398438 C 15.820312 2.417969 15.992188 2.519531 16.304688 2.730469 C 16.621094 2.949219 16.953125 3.175781 17.351562 3.230469 C 17.414062 3.234375 17.472656 3.242188 17.539062 3.242188 C 17.882812 3.242188 18.203125 3.128906 18.515625 3.015625 C 18.792969 2.917969 18.984375 2.859375 19.136719 2.859375 C 19.152344 2.859375 19.15625 2.859375 19.164062 2.859375 L 19.21875 2.859375 L 19.289062 2.871094 C 19.417969 2.925781 19.550781 3.0625 19.800781 3.347656 C 20.054688 3.640625 20.3125 3.945312 20.691406 4.105469 C 20.890625 4.191406 21.117188 4.226562 21.402344 4.226562 C 21.5625 4.226562 21.714844 4.210938 21.867188 4.207031 C 22.007812 4.191406 22.132812 4.183594 22.25 4.183594 C 22.378906 4.183594 22.476562 4.199219 22.542969 4.21875 L 22.589844 4.230469 L 22.628906 4.265625 C 22.734375 4.351562 22.828125 4.515625 22.996094 4.855469 C 23.160156 5.207031 23.339844 5.574219 23.664062 5.820312 C 23.992188 6.070312 24.390625 6.144531 24.773438 6.214844 C 25.132812 6.28125 25.320312 6.328125 25.429688 6.410156 L 25.472656 6.4375 L 25.496094 6.476562 C 25.578125 6.589844 25.625 6.78125 25.691406 7.132812 C 25.761719 7.519531 25.835938 7.910156 26.089844 8.242188 C 26.339844 8.566406 26.699219 8.738281 27.050781 8.910156 C 27.382812 9.070312 27.554688 9.164062 27.640625 9.269531 L 27.675781 9.308594 L 27.695312 9.355469 C 27.742188 9.484375 27.742188 9.683594 27.714844 10.039062 C 27.6875 10.433594 27.65625 10.832031 27.816406 11.214844 C 27.972656 11.59375 28.273438 11.851562 28.570312 12.105469 C 28.851562 12.34375 28.996094 12.484375 29.050781 12.609375 L 29.070312 12.65625 L 29.074219 12.710938 C 29.089844 12.84375 29.03125 13.027344 28.917969 13.367188 C 28.785156 13.738281 28.652344 14.117188 28.703125 14.527344 C 28.757812 14.933594 28.984375 15.257812 29.203125 15.578125 C 29.414062 15.890625 29.519531 16.0625 29.535156 16.207031 L 29.539062 16.242188 L 29.535156 16.273438 C 29.515625 16.421875 29.414062 16.59375 29.203125 16.90625 C 28.984375 17.222656 28.757812 17.554688 28.703125 17.953125 C 28.652344 18.367188 28.785156 18.75 28.917969 19.117188 C 29.035156 19.453125 29.089844 19.640625 29.074219 19.78125 L 29.070312 19.824219 L 29.050781 19.867188 C 28.996094 19.992188 28.855469 20.125 28.570312 20.375 C 28.28125 20.628906 27.972656 20.886719 27.816406 21.265625 C 27.65625 21.644531 27.6875 22.050781 27.714844 22.441406 C 27.742188 22.804688 27.75 23 27.695312 23.132812 L 27.683594 23.171875 L 27.65625 23.203125 C 27.570312 23.3125 27.402344 23.402344 27.066406 23.570312 C 26.710938 23.734375 26.347656 23.914062 26.101562 24.242188 C 25.851562 24.566406 25.777344 24.964844 25.703125 25.347656 C 25.636719 25.707031 25.589844 25.894531 25.511719 26.007812 L 25.484375 26.046875 L 25.445312 26.074219 C 25.332031 26.152344 25.140625 26.199219 24.789062 26.265625 C 24.402344 26.339844 24.011719 26.410156 23.679688 26.664062 C 23.355469 26.914062 23.179688 27.273438 23.015625 27.625 C 22.855469 27.957031 22.761719 28.125 22.65625 28.21875 L 22.609375 28.25 L 22.558594 28.269531 C 22.492188 28.289062 22.390625 28.304688 22.273438 28.304688 C 22.152344 28.304688 22.027344 28.296875 21.886719 28.285156 C 21.734375 28.269531 21.582031 28.261719 21.421875 28.261719 C 21.136719 28.261719 20.910156 28.304688 20.710938 28.382812 C 20.332031 28.542969 20.074219 28.839844 19.820312 29.140625 C 19.582031 29.417969 19.445312 29.558594 19.316406 29.617188 L 19.269531 29.636719 L 19.21875 29.644531 C 19.210938 29.644531 19.203125 29.644531 19.191406 29.644531 C 19.039062 29.644531 18.847656 29.578125 18.566406 29.484375 C 18.253906 29.378906 17.9375 29.257812 17.589844 29.257812 C 17.523438 29.257812 17.464844 29.265625 17.40625 29.273438 C 17 29.324219 16.675781 29.550781 16.355469 29.769531 C 16.039062 29.988281 15.871094 30.089844 15.726562 30.101562 Z M 15.601562 29.511719 Z M 13.761719 28.660156 C 13.847656 28.660156 13.941406 28.667969 14.027344 28.683594 C 14.570312 28.753906 14.996094 29.039062 15.339844 29.277344 C 15.402344 29.320312 15.566406 29.433594 15.667969 29.492188 C 15.765625 29.4375 15.933594 29.324219 15.992188 29.277344 C 16.335938 29.046875 16.761719 28.753906 17.304688 28.683594 C 17.390625 28.667969 17.480469 28.660156 17.570312 28.660156 C 18.015625 28.660156 18.421875 28.800781 18.746094 28.921875 C 18.839844 28.953125 19 29.007812 19.097656 29.035156 C 19.179688 28.953125 19.304688 28.808594 19.351562 28.753906 C 19.621094 28.441406 19.953125 28.042969 20.464844 27.839844 C 20.746094 27.726562 21.042969 27.671875 21.410156 27.671875 C 21.585938 27.671875 21.753906 27.6875 21.917969 27.699219 C 22.046875 27.707031 22.164062 27.71875 22.257812 27.71875 C 22.273438 27.71875 22.277344 27.71875 22.285156 27.71875 C 22.34375 27.621094 22.425781 27.453125 22.457031 27.386719 C 22.636719 27.007812 22.863281 26.542969 23.300781 26.207031 C 23.738281 25.867188 24.25 25.773438 24.660156 25.695312 C 24.734375 25.679688 24.914062 25.648438 25.027344 25.613281 C 25.058594 25.5 25.09375 25.324219 25.105469 25.25 C 25.1875 24.839844 25.277344 24.328125 25.617188 23.886719 C 25.957031 23.449219 26.421875 23.226562 26.800781 23.046875 C 26.867188 23.011719 27.03125 22.933594 27.132812 22.871094 C 27.132812 22.761719 27.117188 22.574219 27.109375 22.5 C 27.078125 22.082031 27.039062 21.566406 27.257812 21.054688 C 27.46875 20.542969 27.859375 20.210938 28.171875 19.9375 C 28.226562 19.890625 28.371094 19.765625 28.453125 19.6875 C 28.425781 19.582031 28.359375 19.402344 28.339844 19.335938 C 28.199219 18.9375 28.027344 18.445312 28.101562 17.894531 C 28.171875 17.351562 28.457031 16.925781 28.699219 16.578125 C 28.738281 16.519531 28.851562 16.355469 28.910156 16.253906 C 28.855469 16.15625 28.746094 15.988281 28.699219 15.929688 C 28.464844 15.582031 28.171875 15.160156 28.101562 14.613281 C 28.027344 14.0625 28.199219 13.574219 28.339844 13.175781 C 28.367188 13.109375 28.425781 12.933594 28.453125 12.820312 C 28.371094 12.742188 28.226562 12.617188 28.171875 12.570312 C 27.859375 12.296875 27.464844 11.964844 27.257812 11.453125 C 27.042969 10.945312 27.085938 10.425781 27.109375 10.007812 C 27.117188 9.933594 27.132812 9.75 27.132812 9.636719 C 27.03125 9.574219 26.867188 9.496094 26.800781 9.464844 C 26.421875 9.285156 25.957031 9.058594 25.617188 8.621094 C 25.277344 8.183594 25.1875 7.671875 25.105469 7.257812 C 25.09375 7.1875 25.058594 7 25.027344 6.894531 C 24.914062 6.859375 24.734375 6.828125 24.660156 6.8125 C 24.25 6.734375 23.738281 6.640625 23.300781 6.304688 C 22.863281 5.964844 22.636719 5.5 22.457031 5.121094 C 22.425781 5.054688 22.34375 4.890625 22.285156 4.789062 C 22.277344 4.789062 22.265625 4.789062 22.25 4.789062 C 22.152344 4.789062 22.039062 4.796875 21.914062 4.808594 C 21.753906 4.824219 21.585938 4.835938 21.402344 4.835938 C 21.035156 4.835938 20.738281 4.78125 20.460938 4.671875 C 19.949219 4.457031 19.617188 4.066406 19.34375 3.753906 C 19.296875 3.699219 19.171875 3.554688 19.089844 3.476562 C 18.992188 3.5 18.839844 3.554688 18.738281 3.589844 C 18.414062 3.699219 18.007812 3.847656 17.566406 3.847656 C 17.480469 3.847656 17.386719 3.839844 17.300781 3.828125 C 16.753906 3.753906 16.328125 3.46875 15.984375 3.230469 C 15.925781 3.191406 15.757812 3.078125 15.660156 3.015625 C 15.558594 3.070312 15.394531 3.183594 15.335938 3.230469 C 14.988281 3.460938 14.5625 3.753906 14.019531 3.828125 C 13.933594 3.839844 13.847656 3.847656 13.753906 3.847656 C 13.308594 3.847656 12.90625 3.707031 12.578125 3.589844 C 12.488281 3.554688 12.328125 3.5 12.226562 3.476562 C 12.148438 3.554688 12.023438 3.699219 11.976562 3.753906 C 11.703125 4.066406 11.371094 4.464844 10.859375 4.671875 C 10.582031 4.78125 10.289062 4.835938 9.917969 4.835938 C 9.738281 4.835938 9.570312 4.824219 9.414062 4.808594 C 9.285156 4.804688 9.167969 4.789062 9.066406 4.789062 C 9.054688 4.789062 9.046875 4.789062 9.039062 4.789062 C 8.980469 4.890625 8.902344 5.054688 8.867188 5.121094 C 8.6875 5.5 8.464844 5.964844 8.023438 6.304688 C 7.585938 6.640625 7.074219 6.734375 6.664062 6.8125 C 6.589844 6.828125 6.410156 6.859375 6.300781 6.894531 C 6.265625 7.007812 6.234375 7.1875 6.21875 7.257812 C 6.140625 7.671875 6.046875 8.183594 5.707031 8.621094 C 5.371094 9.058594 4.90625 9.285156 4.527344 9.464844 C 4.460938 9.496094 4.292969 9.574219 4.195312 9.636719 C 4.195312 9.75 4.207031 9.933594 4.214844 10.007812 C 4.246094 10.425781 4.289062 10.945312 4.070312 11.453125 C 3.855469 11.964844 3.464844 12.296875 3.152344 12.570312 C 3.097656 12.617188 2.953125 12.742188 2.875 12.820312 C 2.898438 12.929688 2.964844 13.109375 2.988281 13.175781 C 3.125 13.574219 3.296875 14.0625 3.226562 14.613281 C 3.152344 15.160156 2.867188 15.582031 2.628906 15.929688 C 2.589844 15.988281 2.476562 16.15625 2.414062 16.253906 C 2.46875 16.355469 2.582031 16.519531 2.628906 16.578125 C 2.859375 16.925781 3.152344 17.351562 3.226562 17.894531 C 3.296875 18.445312 3.125 18.941406 2.988281 19.335938 C 2.960938 19.402344 2.898438 19.574219 2.875 19.6875 C 2.953125 19.765625 3.097656 19.890625 3.152344 19.9375 C 3.464844 20.210938 3.863281 20.542969 4.070312 21.054688 C 4.28125 21.566406 4.242188 22.082031 4.214844 22.5 C 4.207031 22.574219 4.195312 22.761719 4.195312 22.871094 C 4.292969 22.933594 4.460938 23.011719 4.527344 23.046875 C 4.90625 23.226562 5.371094 23.449219 5.707031 23.886719 C 6.046875 24.328125 6.140625 24.839844 6.21875 25.25 C 6.234375 25.324219 6.265625 25.5 6.300781 25.613281 C 6.410156 25.648438 6.589844 25.679688 6.664062 25.695312 C 7.074219 25.773438 7.585938 25.867188 8.023438 26.207031 C 8.464844 26.542969 8.6875 27.007812 8.867188 27.386719 C 8.902344 27.453125 8.980469 27.621094 9.039062 27.71875 C 9.046875 27.71875 9.0625 27.71875 9.074219 27.71875 C 9.167969 27.71875 9.285156 27.710938 9.414062 27.699219 C 9.566406 27.6875 9.746094 27.671875 9.925781 27.671875 C 10.289062 27.671875 10.585938 27.726562 10.867188 27.839844 C 11.378906 28.050781 11.710938 28.441406 11.980469 28.753906 C 12.027344 28.808594 12.15625 28.953125 12.234375 29.035156 C 12.332031 29.007812 12.492188 28.953125 12.585938 28.921875 C 12.90625 28.800781 13.308594 28.660156 13.761719 28.660156 Z M 27.183594 22.828125 Z M 28.5 19.621094 Z M 28.929688 16.308594 Z M 2.390625 16.308594 Z M 2.390625 16.179688 Z M 4.136719 9.667969 Z M 22.238281 4.714844 Z M 15.71875 2.976562 Z M 15.601562 2.976562 Z M 15.601562 2.976562 " fill-opacity="1" fill-rule="nonzero"/><path fill="#ffffff" d="M 15.15625 29.808594 L 15.121094 29.804688 C 14.984375 29.789062 14.808594 29.683594 14.503906 29.472656 C 14.1875 29.253906 13.847656 29.027344 13.441406 28.972656 C 13.382812 28.96875 13.316406 28.960938 13.257812 28.960938 C 12.90625 28.960938 12.585938 29.074219 12.265625 29.1875 C 11.988281 29.285156 11.796875 29.34375 11.648438 29.34375 L 11.582031 29.34375 L 11.535156 29.324219 C 11.410156 29.273438 11.277344 29.132812 11.039062 28.855469 C 10.785156 28.554688 10.519531 28.25 10.136719 28.089844 C 9.929688 28.003906 9.703125 27.964844 9.417969 27.964844 C 9.261719 27.964844 9.101562 27.976562 8.953125 27.984375 C 8.816406 27.996094 8.6875 28.003906 8.570312 28.003906 C 8.449219 28.003906 8.351562 27.992188 8.285156 27.972656 L 8.238281 27.957031 L 8.199219 27.929688 C 8.089844 27.851562 8.003906 27.6875 7.839844 27.347656 C 7.667969 26.996094 7.496094 26.628906 7.164062 26.371094 C 6.832031 26.121094 6.433594 26.039062 6.046875 25.964844 C 5.695312 25.898438 5.507812 25.855469 5.394531 25.773438 L 5.355469 25.746094 L 5.328125 25.707031 C 5.25 25.601562 5.203125 25.410156 5.136719 25.058594 C 5.066406 24.671875 4.992188 24.273438 4.734375 23.941406 C 4.480469 23.609375 4.113281 23.4375 3.757812 23.265625 C 3.429688 23.105469 3.257812 23.011719 3.171875 22.914062 L 3.144531 22.878906 L 3.132812 22.839844 C 3.085938 22.714844 3.09375 22.519531 3.121094 22.167969 C 3.144531 21.777344 3.179688 21.371094 3.019531 20.980469 C 2.859375 20.597656 2.554688 20.335938 2.257812 20.078125 C 1.976562 19.839844 1.839844 19.707031 1.785156 19.582031 L 1.765625 19.539062 L 1.757812 19.492188 C 1.746094 19.359375 1.796875 19.183594 1.917969 18.851562 C 2.050781 18.476562 2.183594 18.09375 2.128906 17.675781 C 2.078125 17.269531 1.851562 16.929688 1.632812 16.613281 C 1.417969 16.300781 1.320312 16.136719 1.300781 15.996094 L 1.292969 15.960938 L 1.300781 15.929688 C 1.3125 15.789062 1.417969 15.617188 1.632812 15.3125 C 1.851562 14.992188 2.078125 14.65625 2.128906 14.25 C 2.183594 13.832031 2.050781 13.445312 1.917969 13.074219 C 1.796875 12.734375 1.746094 12.554688 1.757812 12.425781 L 1.765625 12.382812 L 1.777344 12.34375 C 1.832031 12.21875 1.964844 12.09375 2.25 11.847656 C 2.546875 11.59375 2.855469 11.328125 3.011719 10.945312 C 3.171875 10.558594 3.144531 10.152344 3.113281 9.753906 C 3.085938 9.398438 3.078125 9.203125 3.132812 9.078125 L 3.144531 9.039062 L 3.171875 9.003906 C 3.253906 8.898438 3.417969 8.8125 3.757812 8.648438 C 4.109375 8.472656 4.480469 8.300781 4.734375 7.96875 C 4.984375 7.636719 5.066406 7.238281 5.136719 6.855469 C 5.203125 6.503906 5.25 6.308594 5.328125 6.203125 L 5.355469 6.164062 L 5.394531 6.136719 C 5.503906 6.058594 5.695312 6.011719 6.046875 5.945312 C 6.433594 5.871094 6.832031 5.796875 7.164062 5.539062 C 7.496094 5.289062 7.667969 4.921875 7.839844 4.5625 C 7.992188 4.238281 8.085938 4.066406 8.191406 3.984375 L 8.230469 3.953125 L 8.277344 3.941406 C 8.34375 3.917969 8.4375 3.90625 8.554688 3.90625 C 8.675781 3.90625 8.808594 3.917969 8.941406 3.925781 C 9.09375 3.941406 9.246094 3.945312 9.40625 3.945312 C 9.691406 3.945312 9.925781 3.90625 10.121094 3.820312 C 10.507812 3.660156 10.765625 3.355469 11.027344 3.058594 C 11.265625 2.777344 11.398438 2.636719 11.523438 2.585938 L 11.570312 2.566406 L 11.636719 2.566406 C 11.78125 2.566406 11.976562 2.632812 12.253906 2.726562 C 12.566406 2.835938 12.890625 2.949219 13.242188 2.949219 C 13.308594 2.949219 13.371094 2.945312 13.429688 2.9375 C 13.835938 2.882812 14.171875 2.660156 14.492188 2.4375 C 14.804688 2.226562 14.96875 2.128906 15.109375 2.109375 L 15.140625 2.101562 L 15.175781 2.109375 C 15.3125 2.121094 15.488281 2.226562 15.792969 2.4375 C 16.109375 2.660156 16.449219 2.882812 16.855469 2.9375 C 16.914062 2.945312 16.980469 2.949219 17.039062 2.949219 C 17.390625 2.949219 17.710938 2.835938 18.03125 2.726562 C 18.308594 2.625 18.5 2.566406 18.648438 2.566406 C 18.652344 2.566406 18.667969 2.566406 18.667969 2.566406 L 18.714844 2.566406 L 18.761719 2.585938 C 18.886719 2.636719 19.019531 2.777344 19.257812 3.058594 C 19.511719 3.355469 19.777344 3.660156 20.160156 3.820312 C 20.367188 3.90625 20.59375 3.945312 20.878906 3.945312 C 21.035156 3.945312 21.191406 3.933594 21.34375 3.925781 C 21.480469 3.914062 21.609375 3.90625 21.726562 3.90625 C 21.847656 3.90625 21.945312 3.917969 22.011719 3.941406 L 22.058594 3.953125 L 22.097656 3.980469 C 22.207031 4.058594 22.292969 4.226562 22.449219 4.5625 C 22.625 4.921875 22.796875 5.289062 23.128906 5.539062 C 23.460938 5.792969 23.859375 5.871094 24.242188 5.945312 C 24.59375 6.011719 24.78125 6.058594 24.894531 6.136719 L 24.933594 6.164062 L 24.960938 6.203125 C 25.039062 6.308594 25.085938 6.503906 25.152344 6.855469 C 25.226562 7.238281 25.296875 7.636719 25.558594 7.96875 C 25.808594 8.300781 26.175781 8.472656 26.535156 8.648438 C 26.859375 8.804688 27.03125 8.898438 27.117188 9 L 27.144531 9.03125 L 27.15625 9.070312 C 27.203125 9.199219 27.199219 9.390625 27.171875 9.742188 C 27.144531 10.132812 27.109375 10.539062 27.269531 10.929688 C 27.429688 11.316406 27.734375 11.574219 28.035156 11.832031 C 28.3125 12.070312 28.453125 12.203125 28.503906 12.332031 L 28.523438 12.371094 L 28.53125 12.417969 C 28.546875 12.550781 28.492188 12.730469 28.371094 13.0625 C 28.238281 13.433594 28.105469 13.816406 28.160156 14.234375 C 28.214844 14.640625 28.4375 14.980469 28.65625 15.296875 C 28.871094 15.609375 28.96875 15.777344 28.988281 15.914062 L 28.996094 15.949219 L 28.988281 15.980469 C 28.976562 16.121094 28.871094 16.292969 28.65625 16.597656 C 28.4375 16.917969 28.214844 17.257812 28.160156 17.660156 C 28.105469 18.078125 28.238281 18.464844 28.371094 18.835938 C 28.492188 19.175781 28.546875 19.355469 28.53125 19.488281 L 28.523438 19.527344 L 28.511719 19.566406 C 28.457031 19.691406 28.324219 19.820312 28.039062 20.066406 C 27.742188 20.316406 27.4375 20.582031 27.277344 20.96875 C 27.117188 21.351562 27.144531 21.757812 27.175781 22.15625 C 27.203125 22.515625 27.210938 22.707031 27.15625 22.832031 L 27.144531 22.871094 L 27.117188 22.90625 C 27.039062 23.011719 26.871094 23.097656 26.535156 23.265625 C 26.183594 23.4375 25.808594 23.609375 25.558594 23.941406 C 25.304688 24.273438 25.226562 24.671875 25.152344 25.058594 C 25.085938 25.410156 25.039062 25.59375 24.960938 25.707031 L 24.933594 25.746094 L 24.894531 25.773438 C 24.789062 25.855469 24.59375 25.898438 24.242188 25.964844 C 23.859375 26.039062 23.460938 26.113281 23.128906 26.371094 C 22.796875 26.625 22.625 26.988281 22.449219 27.347656 C 22.292969 27.671875 22.207031 27.84375 22.097656 27.925781 L 22.058594 27.957031 L 22.011719 27.972656 C 21.945312 27.992188 21.851562 28.003906 21.734375 28.003906 C 21.613281 28.003906 21.488281 27.996094 21.347656 27.984375 C 21.195312 27.972656 21.042969 27.964844 20.882812 27.964844 C 20.597656 27.964844 20.367188 28.003906 20.167969 28.089844 C 19.78125 28.25 19.523438 28.554688 19.265625 28.855469 C 19.023438 29.132812 18.890625 29.273438 18.765625 29.324219 L 18.71875 29.34375 L 18.652344 29.34375 C 18.507812 29.34375 18.316406 29.277344 18.035156 29.1875 C 17.722656 29.074219 17.398438 28.960938 17.046875 28.960938 C 16.980469 28.960938 16.921875 28.96875 16.859375 28.972656 C 16.449219 29.027344 16.117188 29.253906 15.800781 29.472656 C 15.488281 29.683594 15.320312 29.785156 15.179688 29.804688 Z M 13.25 28.417969 C 13.335938 28.417969 13.421875 28.421875 13.507812 28.4375 C 14.046875 28.507812 14.472656 28.792969 14.808594 29.027344 C 14.875 29.074219 15.050781 29.191406 15.148438 29.246094 C 15.246094 29.191406 15.421875 29.074219 15.488281 29.027344 C 15.824219 28.792969 16.25 28.503906 16.789062 28.4375 C 16.875 28.421875 16.960938 28.417969 17.046875 28.417969 C 17.492188 28.417969 17.875 28.550781 18.214844 28.667969 C 18.316406 28.703125 18.480469 28.761719 18.582031 28.789062 C 18.667969 28.707031 18.792969 28.554688 18.847656 28.496094 C 19.117188 28.183594 19.449219 27.792969 19.953125 27.585938 C 20.226562 27.472656 20.527344 27.421875 20.882812 27.421875 C 21.0625 27.421875 21.230469 27.433594 21.386719 27.445312 C 21.515625 27.453125 21.632812 27.464844 21.734375 27.464844 C 21.753906 27.464844 21.765625 27.464844 21.78125 27.464844 C 21.839844 27.367188 21.925781 27.1875 21.960938 27.121094 C 22.140625 26.75 22.363281 26.285156 22.796875 25.945312 C 23.234375 25.613281 23.738281 25.515625 24.144531 25.441406 C 24.214844 25.429688 24.414062 25.390625 24.523438 25.363281 C 24.554688 25.25 24.589844 25.058594 24.601562 24.984375 C 24.679688 24.578125 24.773438 24.066406 25.105469 23.636719 C 25.4375 23.203125 25.902344 22.980469 26.273438 22.800781 C 26.339844 22.765625 26.527344 22.679688 26.621094 22.621094 C 26.621094 22.507812 26.605469 22.308594 26.601562 22.234375 C 26.566406 21.824219 26.535156 21.304688 26.738281 20.796875 C 26.945312 20.289062 27.335938 19.957031 27.648438 19.6875 C 27.707031 19.632812 27.859375 19.507812 27.941406 19.421875 C 27.914062 19.308594 27.847656 19.128906 27.820312 19.054688 C 27.683594 18.664062 27.507812 18.171875 27.582031 17.628906 C 27.65625 17.089844 27.941406 16.664062 28.171875 16.328125 C 28.21875 16.261719 28.339844 16.089844 28.390625 15.988281 C 28.339844 15.890625 28.21875 15.714844 28.171875 15.648438 C 27.941406 15.3125 27.65625 14.886719 27.582031 14.347656 C 27.507812 13.804688 27.683594 13.3125 27.820312 12.921875 C 27.847656 12.847656 27.914062 12.664062 27.941406 12.554688 C 27.859375 12.46875 27.707031 12.34375 27.648438 12.292969 C 27.335938 12.027344 26.945312 11.6875 26.738281 11.183594 C 26.527344 10.671875 26.566406 10.160156 26.601562 9.742188 C 26.605469 9.667969 26.621094 9.46875 26.621094 9.355469 C 26.519531 9.296875 26.339844 9.210938 26.273438 9.175781 C 25.902344 9 25.4375 8.773438 25.101562 8.339844 C 24.769531 7.902344 24.667969 7.398438 24.59375 6.992188 C 24.582031 6.921875 24.542969 6.722656 24.515625 6.613281 C 24.402344 6.582031 24.210938 6.546875 24.136719 6.535156 C 23.730469 6.457031 23.222656 6.363281 22.789062 6.03125 C 22.359375 5.699219 22.132812 5.234375 21.953125 4.863281 C 21.917969 4.796875 21.832031 4.609375 21.773438 4.515625 C 21.761719 4.515625 21.746094 4.515625 21.726562 4.515625 C 21.628906 4.515625 21.507812 4.523438 21.382812 4.539062 C 21.222656 4.550781 21.058594 4.5625 20.878906 4.5625 C 20.511719 4.5625 20.21875 4.511719 19.949219 4.398438 C 19.445312 4.191406 19.113281 3.800781 18.839844 3.488281 C 18.785156 3.429688 18.660156 3.277344 18.574219 3.195312 C 18.472656 3.222656 18.308594 3.277344 18.207031 3.316406 C 17.871094 3.433594 17.484375 3.566406 17.039062 3.566406 C 16.953125 3.566406 16.867188 3.5625 16.78125 3.546875 C 16.242188 3.476562 15.820312 3.191406 15.480469 2.957031 C 15.414062 2.910156 15.242188 2.792969 15.140625 2.738281 C 15.042969 2.792969 14.871094 2.910156 14.804688 2.957031 C 14.464844 3.191406 14.039062 3.480469 13.503906 3.546875 C 13.414062 3.5625 13.328125 3.566406 13.242188 3.566406 C 12.796875 3.566406 12.414062 3.433594 12.074219 3.316406 C 11.976562 3.28125 11.808594 3.222656 11.710938 3.195312 C 11.625 3.277344 11.496094 3.429688 11.445312 3.488281 C 11.171875 3.800781 10.839844 4.191406 10.335938 4.398438 C 10.0625 4.511719 9.765625 4.5625 9.40625 4.5625 C 9.226562 4.5625 9.0625 4.550781 8.902344 4.539062 C 8.777344 4.53125 8.65625 4.515625 8.554688 4.515625 C 8.535156 4.515625 8.523438 4.515625 8.511719 4.515625 C 8.449219 4.617188 8.363281 4.796875 8.332031 4.863281 C 8.152344 5.234375 7.925781 5.699219 7.496094 6.03125 C 7.054688 6.363281 6.550781 6.460938 6.148438 6.535156 C 6.074219 6.546875 5.875 6.589844 5.769531 6.613281 C 5.734375 6.726562 5.703125 6.921875 5.6875 6.992188 C 5.609375 7.40625 5.515625 7.910156 5.183594 8.339844 C 4.851562 8.773438 4.386719 9 4.015625 9.175781 C 3.949219 9.210938 3.761719 9.296875 3.671875 9.355469 C 3.671875 9.46875 3.683594 9.667969 3.691406 9.742188 C 3.722656 10.152344 3.757812 10.671875 3.550781 11.175781 C 3.34375 11.679688 2.953125 12.011719 2.640625 12.285156 C 2.582031 12.335938 2.429688 12.464844 2.347656 12.550781 C 2.375 12.664062 2.441406 12.84375 2.46875 12.914062 C 2.609375 13.308594 2.78125 13.796875 2.707031 14.34375 C 2.632812 14.878906 2.347656 15.304688 2.117188 15.644531 C 2.070312 15.710938 1.949219 15.882812 1.898438 15.980469 C 1.949219 16.082031 2.070312 16.253906 2.117188 16.320312 C 2.347656 16.660156 2.632812 17.085938 2.707031 17.621094 C 2.78125 18.167969 2.609375 18.65625 2.46875 19.050781 C 2.441406 19.121094 2.375 19.308594 2.347656 19.414062 C 2.429688 19.5 2.582031 19.625 2.640625 19.679688 C 2.953125 19.945312 3.34375 20.285156 3.550781 20.789062 C 3.761719 21.300781 3.722656 21.8125 3.691406 22.222656 C 3.683594 22.296875 3.671875 22.496094 3.671875 22.605469 C 3.769531 22.667969 3.949219 22.753906 4.015625 22.785156 C 4.386719 22.964844 4.851562 23.191406 5.191406 23.625 C 5.523438 24.0625 5.621094 24.566406 5.695312 24.96875 C 5.707031 25.042969 5.75 25.242188 5.773438 25.347656 C 5.886719 25.382812 6.082031 25.414062 6.152344 25.429688 C 6.558594 25.507812 7.070312 25.601562 7.5 25.933594 C 7.933594 26.265625 8.15625 26.730469 8.335938 27.101562 C 8.371094 27.167969 8.457031 27.355469 8.515625 27.445312 C 8.53125 27.445312 8.542969 27.445312 8.5625 27.445312 C 8.664062 27.445312 8.78125 27.441406 8.90625 27.425781 C 9.066406 27.414062 9.234375 27.402344 9.414062 27.402344 C 9.777344 27.402344 10.070312 27.453125 10.34375 27.566406 C 10.847656 27.773438 11.179688 28.164062 11.449219 28.476562 C 11.503906 28.535156 11.628906 28.6875 11.714844 28.769531 C 11.816406 28.742188 11.980469 28.683594 12.082031 28.648438 C 12.421875 28.550781 12.804688 28.417969 13.25 28.417969 Z M 13.25 28.417969 " fill-opacity="1" fill-rule="nonzero"/></svg>